<svg width="346" height="82" viewBox="0 0 346 82" fill="none" xmlns="http://www.w3.org/2000/svg">
  <path
    d="M108.37 55.857V61.127H115.221V65.064H108.37V73H102.79V51.92H116.461V55.857H108.37ZM142.804 73.372C139.58 73.372 137.121 72.597 135.426 71.047C133.732 69.4763 132.884 67.3167 132.884 64.568V51.92H138.464V64.537C138.464 66.2317 138.826 67.4613 139.549 68.226C140.293 68.9907 141.378 69.373 142.804 69.373C144.21 69.373 145.274 68.9907 145.997 68.226C146.741 67.4613 147.113 66.2317 147.113 64.537V51.92H152.693V64.506C152.693 67.2753 151.846 69.4453 150.151 71.016C148.457 72.5867 146.008 73.372 142.804 73.372ZM189.144 62.584V71.915C188.152 72.349 186.995 72.7003 185.672 72.969C184.37 73.2377 183.047 73.372 181.704 73.372C179.141 73.372 176.971 72.876 175.194 71.884C173.417 70.8713 172.084 69.5383 171.195 67.885C170.327 66.211 169.893 64.3923 169.893 62.429C169.893 60.4863 170.348 58.6883 171.257 57.035C172.187 55.3817 173.561 54.059 175.38 53.067C177.199 52.075 179.389 51.579 181.952 51.579C184.349 51.579 186.457 52.044 188.276 52.974L187.16 56.88C186.395 56.4873 185.6 56.1773 184.773 55.95C183.946 55.702 183.006 55.578 181.952 55.578C180.609 55.578 179.441 55.888 178.449 56.508C177.478 57.1073 176.734 57.934 176.217 58.988C175.721 60.0213 175.473 61.1787 175.473 62.46C175.473 64.4853 176.01 66.149 177.085 67.451C178.16 68.7323 179.699 69.373 181.704 69.373C182.345 69.373 183.027 69.3213 183.75 69.218V62.584H189.144ZM206.657 51.92H212.237V73H206.657V51.92ZM236.831 73.372C235.467 73.372 234.144 73.248 232.863 73C231.582 72.7313 230.476 72.3697 229.546 71.915L230.6 68.102C231.757 68.536 232.822 68.8563 233.793 69.063C234.764 69.2697 235.756 69.373 236.769 69.373C237.885 69.373 238.815 69.1973 239.559 68.846C240.324 68.474 240.706 67.9263 240.706 67.203C240.706 66.7277 240.53 66.3143 240.179 65.963C239.828 65.6117 239.383 65.312 238.846 65.064C238.309 64.816 237.554 64.5163 236.583 64.165C235.24 63.669 234.134 63.204 233.266 62.77C232.419 62.336 231.685 61.7367 231.065 60.972C230.466 60.2073 230.166 59.2567 230.166 58.12C230.166 56.074 230.962 54.4723 232.553 53.315C234.144 52.1577 236.304 51.579 239.032 51.579C240.107 51.579 241.192 51.703 242.287 51.951C243.403 52.199 244.385 52.54 245.232 52.974L244.147 56.756C243.238 56.3633 242.39 56.074 241.605 55.888C240.82 55.6813 240.024 55.578 239.218 55.578C238.143 55.578 237.275 55.7743 236.614 56.167C235.953 56.539 235.622 57.066 235.622 57.748C235.622 58.3267 235.932 58.802 236.552 59.174C237.172 59.546 238.154 59.98 239.497 60.476C240.861 60.9927 241.987 61.4887 242.876 61.964C243.785 62.4187 244.56 63.049 245.201 63.855C245.842 64.661 246.162 65.653 246.162 66.831C246.162 68.8977 245.366 70.5097 243.775 71.667C242.184 72.8037 239.869 73.372 236.831 73.372ZM275.217 68.133H268.087L266.506 73H260.895L268.986 51.641H274.38L282.502 73H276.829L275.217 68.133ZM273.977 64.32L271.652 57.314L269.358 64.32H273.977ZM312.015 73L304.358 62.336V73H298.778V51.92H304.358V61.065L311.55 51.92H317.967L309.566 61.623L318.742 73H312.015ZM335.025 51.92H340.605V73H335.025V51.92Z"
    fill="#30A242" />
  <path
    d="M133.377 6.01358L123.855 20.2494L120.989 24.5421L108.6 6.02078L108.597 6.01358H101.916V44.45H107.48V14.3541L117.647 29.5587L119.084 31.7051L119.534 32.3821L120.971 34.5285L120.985 34.5501L134.49 14.3541V44.45H140.054V6.01359L133.377 6.01358Z"
    fill="#5E63CE" />
  <path
    d="M162.765 6.02373L162.761 6.01274H156.883L143.638 44.4241L143.631 44.4493H149.515L152.08 37.0165H167.565L170.126 44.4383L170.133 44.4493H176.013L162.765 6.02373ZM153.995 31.4525L159.822 14.5626L165.649 31.4525H153.995Z"
    fill="#5E63CE" />
  <path d="M169.099 6.01291V11.5769H182.503V44.4493H188.066V11.5769H201.47V6.01291H169.099Z" fill="#5E63CE" />
  <path
    d="M273.527 11.5743V6.01035H241.152V22.4466H237.37V6.01035H231.803V22.4466H210.562V6.01035H204.995V44.4503H210.562V28.0141H231.803V44.4503H237.37V28.0141H241.152V44.4503H243.557L243.575 44.4468H244.292V44.4503H246.698L246.716 44.4468H273.527V38.8828H246.716V28.0105H265.061V22.4466H246.716V11.5743H273.527Z"
    fill="#5E63CE" />
  <path
    d="M303.874 6.01291V28.2652C303.874 34.1208 299.109 38.8853 293.25 38.8853C287.394 38.8853 282.63 34.1208 282.63 28.2652V6.01291H277.062V28.2652C277.062 30.4476 277.491 32.5687 278.333 34.5638C279.151 36.4905 280.318 38.2227 281.805 39.7064C283.292 41.1938 285.025 42.3606 286.951 43.1781C288.946 44.0208 291.064 44.4493 293.25 44.4493C295.436 44.4493 297.557 44.0208 299.552 43.1781C301.479 42.3606 303.211 41.1938 304.698 39.7064C306.182 38.2227 307.353 36.4905 308.166 34.5638C309.009 32.5687 309.438 30.4475 309.438 28.2652V6.01289L303.874 6.01291Z"
    fill="#5E63CE" />
  <path
    d="M345.334 17.0292V17.0112C345.334 14.0726 344.189 11.3104 342.111 9.23245C340.033 7.15452 337.271 6.01291 334.332 6.01291H323.961C317.896 6.01291 312.959 10.9467 312.959 17.0148C312.959 23.0794 317.896 28.0131 323.961 28.0131L334.332 28.0167C337.328 28.0167 339.767 30.4512 339.767 33.4474C339.767 36.4473 337.328 38.8889 334.332 38.8889L323.961 38.8853C320.964 38.8853 318.526 36.4473 318.526 33.4546V33.4366H312.959V33.4546C312.959 39.5156 317.896 44.4493 323.96 44.4493H334.332C337.271 44.4493 340.033 43.3041 342.111 41.2262C344.189 39.1518 345.334 36.3861 345.334 33.4474C345.334 27.3829 340.4 22.4527 334.332 22.4527L323.96 22.4491C320.964 22.4491 318.526 20.0111 318.526 17.0148C318.526 14.0149 320.964 11.5769 323.96 11.5769H334.332C337.328 11.5769 339.767 14.0149 339.767 17.0112V17.0292H345.334Z"
    fill="#5E63CE" />
  <path fill-rule="evenodd" clip-rule="evenodd"
    d="M7.5564 1.53233C9.9978 0.602333 13.2528 0.253326 17.3217 0.253326L40.689 27.3404L64.055 0.253326C68.24 0.253326 71.4961 0.835335 73.8211 1.76534C76.2621 2.69534 78.0061 4.09033 79.1681 6.18233C80.6801 8.62433 81.3771 12.4603 81.3771 17.8083V64.3094C81.3771 69.5404 80.2151 73.6094 77.6571 76.6324C74.8671 80.0034 70.2171 81.7474 63.9391 81.7474V28.7354L17.4379 81.6304H17.3217C11.1603 81.6304 6.6264 79.8874 3.7201 76.5154C1.2788 73.6094 0 69.5404 0 64.1924V17.6913C0 12.4603 0.697506 8.62433 2.09261 6.06633C3.37131 3.97333 5.23139 2.46233 7.5564 1.53233ZM28.5982 41.4074L17.438 28.6194V54.4274L28.5982 41.4074Z"
    fill="#5E63CE" />
</svg>