<svg width="82" height="82" viewBox="0 0 82 82" fill="none" xmlns="http://www.w3.org/2000/svg">
  <path fill-rule="evenodd" clip-rule="evenodd"
    d="M7.5564 1.27901C9.9978 0.349007 13.2528 0 17.3217 0L40.689 27.087L64.055 0C68.24 0 71.4961 0.582009 73.8211 1.51201C76.2621 2.44201 78.0061 3.837 79.1681 5.929C80.6801 8.371 81.3771 12.207 81.3771 17.555V64.0561C81.3771 69.2871 80.2151 73.3561 77.6571 76.3791C74.8671 79.7501 70.2171 81.4941 63.9391 81.4941V28.482L17.4379 81.3771H17.3217C11.1603 81.3771 6.6264 79.6341 3.7201 76.2621C1.2788 73.3561 0 69.2871 0 63.9391V17.438C0 12.207 0.697506 8.371 2.09261 5.813C3.37131 3.72 5.23139 2.20901 7.5564 1.27901ZM28.5982 41.154L17.438 28.366V54.1741L28.5982 41.154Z"
    fill="#5E63CE" />
</svg>